<?xml version="1.0" encoding="UTF-8"?>
<svg id="Layer_1" data-name="Layer 1" xmlns="http://www.w3.org/2000/svg" viewBox="0 0 349.49 89.3">
  <defs>
    <style>
      .cls-1 {
        fill: #ffffff;
      }

      .cls-2 {
        fill-rule: evenodd;
      }
    </style>
  </defs>
  <g>
    <path class="cls-1" d="m131.31,27.94l-.69.48-6.58,4.67c1.24,3.62,1.91,7.5,1.91,11.56,0,19.92-16.14,36.06-36.06,36.06-11.69,0-22.08-5.55-28.64-14.19-1.13-1.44-2.13-2.97-3.01-4.59l-2.23.07-5.89.19-.86.02h-.02l-.38.02c.07.15.14.33.21.48.69,1.58,1.48,3.11,2.35,4.59.64,1.08,1.32,2.13,2.04,3.14.17.26.36.52.55.77,1.05,1.41,2.16,2.76,3.37,4.04,2.06,2.2,4.34,4.17,6.82,5.91,7.26,5.13,16.13,8.14,25.69,8.14,24.66,0,44.65-19.99,44.65-44.65,0-5.91-1.15-11.56-3.23-16.71Zm-74.94,30.05c-1.1-2.76-1.85-5.68-2.23-8.72-.05-.31-.09-.62-.12-.93-.12-1.22-.19-2.46-.19-3.69,0-2.15.19-4.24.55-6.29,2.97-16.93,17.74-29.78,35.51-29.78,5.99,0,11.64,1.46,16.62,4.05l9.08-4.48C108.33,3.02,99.47,0,89.88,0c-24.06,0-43.67,19.03-44.62,42.86-.02.6-.03,1.18-.03,1.79,0,2.64.22,5.24.69,7.76.03.27.09.55.14.82.09.4.17.79.26,1.17.57,2.58,1.36,5.07,2.37,7.44l5.77-2.89,1.91-.96ZM123.34,15.1l-8.05,3.98c1.63,1.6,3.13,3.38,4.41,5.29l6.99-4.96c-1.01-1.51-2.15-2.95-3.35-4.31Z"/>
    <path class="cls-1" d="m111.31,30.34l-45.66,22.98c-.98-2.71-1.51-5.63-1.51-8.67v-.33c.17-14.06,11.64-25.43,25.76-25.43,5.77,0,11.13,1.91,15.42,5.12,2.34,1.75,4.36,3.9,5.99,6.34Z"/>
    <path class="cls-1" d="m115.65,44.64c0,14.24-11.52,25.76-25.76,25.76-7.78,0-14.75-3.45-19.46-8.9l44.14-22.2.46-.33c.39,1.82.62,3.73.62,5.67Z"/>
    <path class="cls-1" d="m153.92,0l-27.24,19.41-6.99,4.96-8.38,5.98h-.02l-45.66,22.98v.02l-9.27,4.65-1.91.96-5.77,2.89-.84.43,1.01-.03.38-.02h.02l.86-.02,5.89-.19,2.23-.07,2.28,4.55.15.33,1.6,3.18-.86.91-.07.07-3.97,4.28c-3.47-4.26-14.34-4.77-25.71-3.95-.31.02-.62.05-.93.07l-.02.02c-14.63,1.15-29.78,4.4-30.72,4.6l25.06-12.38,18.5-9.12,2.51-1.25,8.07-3.97,9.99-4.93v-.02l41.18-20.32,9.98-4.93,8.05-3.98L153.92,0Z"/>
  </g>
  <g>
    <path class="cls-1" d="m195.21,27.05v36.78h-8.96l-14.98-22.69v22.69h-8.96V27.05h8.96l14.98,22.79v-22.79h8.96Z"/>
    <path class="cls-1" d="m214.73,64.25c-8.59,0-14.77-5.76-14.77-15.04s6.08-15.04,14.77-15.04,14.56,5.66,14.56,14.56c0,.84-.05,1.73-.15,2.62h-20.28c.31,3.82,2.67,5.61,5.55,5.61,2.52,0,3.93-1.26,4.67-2.83h9.53c-1.42,5.71-6.6,10.11-13.89,10.11Zm-5.81-17.87h11.21c0-3.2-2.51-5.03-5.5-5.03s-5.19,1.78-5.71,5.03Z"/>
    <path class="cls-1" d="m251.99,34.17c7.23,0,12.89,5.76,12.89,14.98s-5.71,15.09-12.89,15.09c-4.3,0-7.39-1.94-9.01-4.51v4.09h-8.96V25.06h8.96v13.67c1.62-2.62,4.82-4.56,9.01-4.56Zm-2.67,7.8c-3.35,0-6.39,2.57-6.39,7.23s3.04,7.23,6.39,7.23,6.44-2.62,6.44-7.28-3.04-7.18-6.44-7.18Z"/>
    <path class="cls-1" d="m298.48,63.83h-8.96v-3.98c-1.78,2.51-4.92,4.3-8.85,4.3-6.76,0-11.32-4.66-11.32-12.47v-17.08h8.91v15.88c0,3.98,2.25,6.18,5.61,6.18s5.66-2.2,5.66-6.18v-15.88h8.96v29.24Z"/>
    <path class="cls-1" d="m304.95,25.06h8.96v38.77h-8.96V25.06Z"/>
    <path class="cls-1" d="m331.52,34.17c4.35,0,7.44,1.99,9.01,4.56v-4.14h8.96v29.24h-8.96v-4.14c-1.62,2.57-4.71,4.56-9.06,4.56-7.12,0-12.84-5.87-12.84-15.09s5.71-14.98,12.89-14.98Zm2.62,7.8c-3.35,0-6.39,2.51-6.39,7.18s3.04,7.28,6.39,7.28,6.39-2.57,6.39-7.23-2.99-7.23-6.39-7.23Z"/>
  </g>
</svg>