<svg width="350" height="90" viewBox="0 0 350 90" fill="none" xmlns="http://www.w3.org/2000/svg">
<rect width="350" height="90" fill="#1E1E1E"/>
<g clip-path="url(#clip0_0_1)">
<path d="M131.31 27.94L130.62 28.42L124.04 33.09C125.28 36.71 125.95 40.59 125.95 44.65C125.95 64.57 109.81 80.71 89.89 80.71C78.2 80.71 67.81 75.16 61.25 66.52C60.12 65.08 59.12 63.55 58.24 61.93L56.01 62L50.12 62.19L49.26 62.21H49.24L48.86 62.23C48.93 62.38 49 62.56 49.07 62.71C49.76 64.29 50.55 65.82 51.42 67.3C52.06 68.38 52.74 69.43 53.46 70.44C53.63 70.7 53.82 70.96 54.01 71.21C55.06 72.62 56.17 73.97 57.38 75.25C59.44 77.45 61.72 79.42 64.2 81.16C71.46 86.29 80.33 89.3 89.89 89.3C114.55 89.3 134.54 69.31 134.54 44.65C134.54 38.74 133.39 33.09 131.31 27.94ZM56.37 57.99C55.27 55.23 54.52 52.31 54.14 49.27C54.09 48.96 54.05 48.65 54.02 48.34C53.9 47.12 53.83 45.88 53.83 44.65C53.83 42.5 54.02 40.41 54.38 38.36C57.35 21.43 72.12 8.58 89.89 8.58C95.88 8.58 101.53 10.04 106.51 12.63L115.59 8.15C108.33 3.02 99.47 0 89.88 0C65.82 0 46.21 19.03 45.26 42.86C45.24 43.46 45.23 44.04 45.23 44.65C45.23 47.29 45.45 49.89 45.92 52.41C45.95 52.68 46.01 52.96 46.06 53.23C46.15 53.63 46.23 54.02 46.32 54.4C46.89 56.98 47.68 59.47 48.69 61.84L54.46 58.95L56.37 57.99ZM123.34 15.1L115.29 19.08C116.92 20.68 118.42 22.46 119.7 24.37L126.69 19.41C125.68 17.9 124.54 16.46 123.34 15.1Z" fill="black"/>
<path d="M111.31 30.34L65.65 53.32C64.67 50.61 64.14 47.69 64.14 44.65V44.32C64.31 30.26 75.78 18.89 89.9 18.89C95.67 18.89 101.03 20.8 105.32 24.01C107.66 25.76 109.68 27.91 111.31 30.35V30.34Z" fill="black"/>
<path d="M115.65 44.64C115.65 58.88 104.13 70.4 89.89 70.4C82.11 70.4 75.14 66.95 70.43 61.5L114.57 39.3L115.03 38.97C115.42 40.79 115.65 42.7 115.65 44.64Z" fill="black"/>
<path d="M153.92 0L126.68 19.41L119.69 24.37L111.31 30.35H111.29L65.63 53.33V53.35L56.36 58L54.45 58.96L48.68 61.85L47.84 62.28L48.85 62.25L49.23 62.23H49.25L50.11 62.21L56 62.02L58.23 61.95L60.51 66.5L60.66 66.83L62.26 70.01L61.4 70.92L61.33 70.99L57.36 75.27C53.89 71.01 43.02 70.5 31.65 71.32C31.34 71.34 31.03 71.37 30.72 71.39L30.7 71.41C16.07 72.56 0.919996 75.81 -0.0200043 76.01L25.04 63.63L43.54 54.51L46.05 53.26L54.12 49.29L64.11 44.36V44.34L105.29 24.02L115.27 19.09L123.32 15.11L153.92 0Z" fill="black"/>
<path d="M195.21 27.05V63.83H186.25L171.27 41.14V63.83H162.31V27.05H171.27L186.25 49.84V27.05H195.21Z" fill="black"/>
<path d="M214.73 64.25C206.14 64.25 199.96 58.49 199.96 49.21C199.96 39.93 206.04 34.17 214.73 34.17C223.42 34.17 229.29 39.83 229.29 48.73C229.29 49.57 229.24 50.46 229.14 51.35H208.86C209.17 55.17 211.53 56.96 214.41 56.96C216.93 56.96 218.34 55.7 219.08 54.13H228.61C227.19 59.84 222.01 64.24 214.72 64.24L214.73 64.25ZM208.92 46.38H220.13C220.13 43.18 217.62 41.35 214.63 41.35C211.64 41.35 209.44 43.13 208.92 46.38Z" fill="black"/>
<path d="M251.99 34.17C259.22 34.17 264.88 39.93 264.88 49.15C264.88 58.37 259.17 64.24 251.99 64.24C247.69 64.24 244.6 62.3 242.98 59.73V63.82H234.02V25.06H242.98V38.73C244.6 36.11 247.8 34.17 251.99 34.17ZM249.32 41.97C245.97 41.97 242.93 44.54 242.93 49.2C242.93 53.86 245.97 56.43 249.32 56.43C252.67 56.43 255.76 53.81 255.76 49.15C255.76 44.49 252.72 41.97 249.32 41.97Z" fill="black"/>
<path d="M298.48 63.83H289.52V59.85C287.74 62.36 284.6 64.15 280.67 64.15C273.91 64.15 269.35 59.49 269.35 51.68V34.6H278.26V50.48C278.26 54.46 280.51 56.66 283.87 56.66C287.23 56.66 289.53 54.46 289.53 50.48V34.6H298.49V63.84L298.48 63.83Z" fill="black"/>
<path d="M304.95 25.06H313.91V63.83H304.95V25.06Z" fill="black"/>
<path d="M331.52 34.17C335.87 34.17 338.96 36.16 340.53 38.73V34.59H349.49V63.83H340.53V59.69C338.91 62.26 335.82 64.25 331.47 64.25C324.35 64.25 318.63 58.38 318.63 49.16C318.63 39.94 324.34 34.18 331.52 34.18V34.17ZM334.14 41.97C330.79 41.97 327.75 44.48 327.75 49.15C327.75 53.82 330.79 56.43 334.14 56.43C337.49 56.43 340.53 53.86 340.53 49.2C340.53 44.54 337.54 41.97 334.14 41.97Z" fill="black"/>
</g>
<defs>
<clipPath id="clip0_0_1">
<rect width="349.49" height="89.3" fill="white"/>
</clipPath>
</defs>
</svg>
